<svg xmlns="http://www.w3.org/2000/svg" width="32" height="22" viewBox="0 0 32 22" fill="none">
            <g clipPath="url(#clip0_3_5825)">
                <path d="M32 0H0V22H32V0Z" fill="#F0F0F0" />
                <path
                    d="M20 8.62059H17.3369L16 6.2357L14.6631 8.62059H12L13.3369 11.0055L12 13.3904H14.6631L16 15.7752L17.3369 13.3904H20L18.6631 11.0055L20 8.62059ZM17.634 10.9945L16.817 12.4605H15.183L14.366 10.9945L15.183 9.52859H16.817L17.634 10.9945ZM16 8.07359L16.3077 8.62059H15.7029L16.0106 8.07359H16ZM13.5385 9.53953H14.1432L13.8355 10.0865L13.5279 9.53953H13.5385ZM13.5385 12.4605L13.8462 11.9135L14.1538 12.4605H13.5491H13.5385ZM16 13.9264L15.6923 13.3794H16.2971L15.9894 13.9264H16ZM18.4615 12.4605H17.8568L18.1645 11.9135L18.4721 12.4605H18.4615ZM17.8462 9.53953H18.4509L18.1432 10.0865L17.8355 9.53953H17.8462Z"
                    fill="#2E52B2"
                />
                <path d="M32 1.37842H0V4.12432H32V1.37842Z" fill="#2E52B2" />
                <path d="M32 17.8757H0V20.6216H32V17.8757Z" fill="#2E52B2" />
            </g>
        </svg>