<svg xmlns="http://www.w3.org/2000/svg" width="32" height="22" viewBox="0 0 32 22" fill="none">
            <g clipPath="url(#clip0_2_5800)">
                <path d="M32 0H0V22H32V0Z" fill="#F0F0F0" />
                <path d="M18.0053 0H14.0053V8.93784H0V13.0622H14.0053V22H18.0053V13.0622H32V8.93784H18.0053V0Z" fill="#D80027" />
                <path d="M24.6154 14.8235L32 19.0572V14.8235H24.6154Z" fill="#0052B4" />
                <path d="M19.4801 14.8235L32 22V19.9652L23.0239 14.8235H19.4801Z" fill="#0052B4" />
                <path d="M28.6684 22L19.4801 16.7379V22H28.6684Z" fill="#0052B4" />
                <path d="M19.4801 14.8235L32 22V19.9652L23.0239 14.8235H19.4801Z" fill="#F0F0F0" />
                <path d="M19.4801 14.8235L32 22V19.9652L23.0239 14.8235H19.4801Z" fill="#D80027" />
                <path d="M5.64456 14.8235L0 18.0617V14.8235H5.64456Z" fill="#0052B4" />
                <path d="M12.5199 15.7315V22H1.59152L12.5199 15.7315Z" fill="#0052B4" />
                <path d="M8.97613 14.8235L0 19.9652V22L12.5199 14.8235H8.97613Z" fill="#D80027" />
                <path d="M7.38462 7.17652L0 2.94281V7.17652H7.38462Z" fill="#0052B4" />
                <path d="M12.5199 7.17653L0 0V2.02387L8.97613 7.17653H12.5199Z" fill="#0052B4" />
                <path d="M3.33157 0L12.5199 5.26206V0H3.33157Z" fill="#0052B4" />
                <path d="M12.5199 7.17653L0 0V2.02387L8.97613 7.17653H12.5199Z" fill="#F0F0F0" />
                <path d="M12.5199 7.17653L0 0V2.02387L8.97613 7.17653H12.5199Z" fill="#D80027" />
                <path d="M26.3554 7.17653L32 3.93834V7.17653H26.3554Z" fill="#0052B4" />
                <path d="M19.4801 6.25758V0H30.4085L19.4801 6.25758Z" fill="#0052B4" />
                <path d="M23.0239 7.17653L32 2.02387V0L19.4801 7.17653H23.0239Z" fill="#D80027" />
            </g>
        </svg>